<svg xmlns="http://www.w3.org/2000/svg"
    xmlns:xlink="http://www.w3.org/1999/xlink"
    version="1.1"
    x="0px"
    y="0px"
    viewBox="0 0 86.5 86.5"
    style="enable-background:new 0 0 317.8 86.5"
    xml:space="preserve"
    height="100%"
    width="100%"
    preserveAspectRatio="xMidYMid meet"
    focusable="false">

    <g>
        <rect class="anim" x="39" y="2.8" transform="matrix(-0.7071 -0.7071 0.7071 -0.7071 69.033 94.234)" style="fill: none; stroke: #555; stroke-width: 2; stroke-linejoin: round; stroke-miterlimit: 10;" width="30" height="60"></rect>
        <rect class="anim" x="17.8" y="2.8" transform="matrix(-0.7071 0.7071 -0.7071 -0.7071 79.234 32.8198)" style="fill: none; stroke: #555; stroke-width: 2; stroke-linejoin: round; stroke-miterlimit: 10;" width="30" height="60"></rect>
        <rect class="anim" x="39" y="23.6" transform="matrix(-0.7071 -0.7071 0.7071 -0.7071 54.3112 129.7757)" style="fill: none; opacity: 0.2; stroke: #555; stroke-width: 2; stroke-linejoin: round; stroke-miterlimit: 10;" width="30" height="60"></rect>
        <rect class="anim" x="17.8" y="23.6" transform="matrix(-0.7071 0.7071 -0.7071 -0.7071 93.9558 68.3614)" style="fill: none; opacity: 0.2; stroke: #555; stroke-width: 2; stroke-linejoin: round; stroke-miterlimit: 10;" width="30" height="60"></rect>
        <polygon class="anim" style="fill: none; stroke: #555; stroke-width: 2; stroke-linejoin: round; stroke-miterlimit: 10;" points="1,22.2 1,43 22.2,64.2 22.2,43.4 "></polygon>
        <polygon class="anim" style="fill: none; stroke: #555; stroke-width: 2; stroke-linejoin: round; stroke-miterlimit: 10;" points="43.4,64.6 43.4,85.5 22.2,64.2 22.2,43.4 "></polygon>
        <polygon class="anim" style="fill: none; stroke: #555; stroke-width: 2; stroke-linejoin: round; stroke-miterlimit: 10;" points="85.9,22.2 85.9,43 64.6,64.2 64.6,43.4 "></polygon>
        <polygon class="anim" style="fill: none; stroke: #555; stroke-width: 2; stroke-linejoin: round; stroke-miterlimit: 10;" points="43.4,64.6 64.6,43.4 64.6,64.2 43.4,85.5 "></polygon>
        <line style="opacity:0.2;stroke:#555;stroke-width:2;stroke-linejoin:round;stroke-miterlimit:10;" x1="22.2" y1="1" x2="22.2" y2="21.8"></line>
        <line style="opacity:0.2;stroke:#555;stroke-width:2;stroke-linejoin:round;stroke-miterlimit:10;" x1="64.6" y1="1" x2="64.6" y2="21.8"></line>
        <line style="opacity:0.2;stroke:#555;stroke-width:2;stroke-linejoin:round;stroke-miterlimit:10;" x1="43.4" y1="22.1" x2="43.4" y2="43.1"></line>
    </g>

</svg>