<svg id="Layer_1" data-name="Layer 1" xmlns="http://www.w3.org/2000/svg" viewBox="0 0 1411.49 1411.49">
    <defs>
        <style>.cls-1{fill:none;}.cls-2{fill:rgb(0,136,252);}</style>
    </defs>
    <title>bezel</title>
    <rect class="cls-1" width="1411.49" height="1411.49" />
    <path class="cls-2" d="M1580.65,1338.39a22.23,22.23,0,0,0,1.08-2.05,24.09,24.09,0,0,0,.72-2.33c.18-.61.42-1.2.54-1.83a22.12,22.12,0,0,0,0-8.73c-.12-.63-.36-1.22-.54-1.83a24.09,24.09,0,0,0-.72-2.33,22.4,22.4,0,0,0-1.08-2.06c-.33-.59-.59-1.21-1-1.78a22.27,22.27,0,0,0-2.75-3.36l0,0-311.83-311.84,311.83-311.85a22.3,22.3,0,0,0,0-31.52L1250.27,330.22h0l-1.91-1.91a22.3,22.3,0,0,0-15.75-6.52H767.94a22.29,22.29,0,0,0-15.76,6.53L423.64,656.85l0,0a22.24,22.24,0,0,0-2.75,3.37,18.08,18.08,0,0,0-1,1.78,22.23,22.23,0,0,0-1.08,2.05,23.49,23.49,0,0,0-.73,2.34c-.17.61-.41,1.19-.54,1.82a22.55,22.55,0,0,0,0,8.74c.13.63.37,1.21.54,1.82a23.49,23.49,0,0,0,.73,2.34,22.23,22.23,0,0,0,1.08,2.05,19.3,19.3,0,0,0,1,1.78,22.24,22.24,0,0,0,2.75,3.37l0,0,311.83,311.85L423.64,1312.06a22.28,22.28,0,0,0,0,31.51l326.63,326.66h0l1.91,1.91a22.29,22.29,0,0,0,15.76,6.53H1232.6a22.29,22.29,0,0,0,15.76-6.53l328.55-328.57,0,0a22.27,22.27,0,0,0,2.75-3.36C1580.06,1339.61,1580.32,1339,1580.65,1338.39ZM766,1623,470.92,1327.81,766,1032.7l295.15,295.11ZM1234.51,377.49l295.12,295.12L1234.52,967.75,939.37,672.61ZM898.62,694.9,1180.71,977H775.26L493.2,694.9Zm203.3,610.63L819.83,1023.47h405.46l282,282.06ZM777.17,366.35h405.45l-284,284H493.2Zm446.2,1267.75H817.92l284-284h405.43Z" transform="translate(-294.26 -294.26)" />
</svg>